<svg width="63" height="63" viewBox="0 0 63 63" fill="none" xmlns="http://www.w3.org/2000/svg">
<path d="M31.6411 0.288864C14.4772 0.288864 0.540771 14.2253 0.540771 31.3892C0.540771 48.5531 14.4772 62.4896 31.6411 62.4896C48.805 62.4896 62.7415 48.5531 62.7415 31.3892C62.7415 14.2253 48.805 0.288864 31.6411 0.288864Z" fill="#566D82"/>
<path d="M41.7636 27.9662V34.3721C41.4702 34.91 41.079 35.4968 40.59 36.1814C40.101 36.866 39.4164 37.4528 38.634 38.0396C37.8516 38.6264 36.8737 39.1154 35.749 39.5066C34.6243 39.8978 33.3039 40.0934 31.788 40.0934C30.2721 40.0934 28.9519 39.8978 27.7783 39.5066C26.6047 39.1154 25.6267 38.5775 24.7954 37.9907C23.9641 37.4039 23.2794 36.7193 22.7415 35.9858C22.2036 35.2523 21.8124 34.5677 21.519 33.932V16.7681C21.8124 16.1324 22.2036 15.4478 22.7415 14.7143C23.2794 13.9808 23.9641 13.2962 24.7954 12.7094C25.6267 12.1226 26.6047 11.5847 27.7783 11.1935C28.9519 10.8023 30.2721 10.6067 31.788 10.6067C33.3039 10.6067 34.6243 10.8023 35.749 11.1935C36.8737 11.5847 37.8516 12.0737 38.634 12.6116C39.4164 13.1984 40.101 13.7852 40.59 14.4698C41.079 15.1544 41.4702 15.7412 41.7636 16.328V22.2938H35.749V18.0884C35.5045 17.4527 35.0154 16.8659 34.3797 16.3769C33.6951 15.8879 32.8638 15.6434 31.788 15.6434C30.7611 15.6434 29.881 15.8879 29.2453 16.3769C28.6096 16.8659 28.1205 17.4038 27.8271 18.0884V32.7095C28.0716 33.3452 28.5607 33.8831 29.1964 34.3721C29.881 34.8611 30.7122 35.1056 31.788 35.1056C32.8149 35.1056 33.6952 34.8611 34.3309 34.3721C34.9666 33.8831 35.4556 33.3452 35.749 32.7095V28.064H41.7636V27.9662Z" fill="white"/>
<path d="M21.5747 49.755H41.7704V44.6205H21.5747V49.755Z" fill="white"/>
</svg>
