<svg width="63" height="63" viewBox="0 0 63 63" fill="none" xmlns="http://www.w3.org/2000/svg">
<path d="M31.5006 0.288864C14.3367 0.288864 0.400269 14.2253 0.400269 31.3892C0.400269 48.5531 14.3367 62.4896 31.5006 62.4896C48.6645 62.4896 62.601 48.5531 62.601 31.3892C62.601 14.2253 48.6645 0.288864 31.5006 0.288864Z" fill="#0FE0D2"/>
<path d="M41.6231 27.9662V34.3721C41.3297 34.91 40.9385 35.4968 40.4495 36.1814C39.9605 36.866 39.2759 37.4528 38.4935 38.0396C37.7111 38.6264 36.7332 39.1154 35.6085 39.5066C34.4838 39.8978 33.1634 40.0934 31.6475 40.0934C30.1316 40.0934 28.8114 39.8978 27.6378 39.5066C26.4642 39.1154 25.4862 38.5775 24.6549 37.9907C23.8236 37.4039 23.1389 36.7193 22.601 35.9858C22.0631 35.2523 21.6719 34.5677 21.3785 33.932V16.7681C21.6719 16.1324 22.0631 15.4478 22.601 14.7143C23.1389 13.9808 23.8236 13.2962 24.6549 12.7094C25.4862 12.1226 26.4642 11.5847 27.6378 11.1935C28.8114 10.8023 30.1316 10.6067 31.6475 10.6067C33.1634 10.6067 34.4838 10.8023 35.6085 11.1935C36.7332 11.5847 37.7111 12.0737 38.4935 12.6116C39.2759 13.1984 39.9605 13.7852 40.4495 14.4698C40.9385 15.1544 41.3297 15.7412 41.6231 16.328V22.2938H35.6085V18.0884C35.364 17.4527 34.8749 16.8659 34.2392 16.3769C33.5546 15.8879 32.7233 15.6434 31.6475 15.6434C30.6206 15.6434 29.7405 15.8879 29.1048 16.3769C28.4691 16.8659 27.98 17.4038 27.6866 18.0884V32.7095C27.9311 33.3452 28.4202 33.8831 29.0559 34.3721C29.7405 34.8611 30.5717 35.1056 31.6475 35.1056C32.6744 35.1056 33.5547 34.8611 34.1904 34.3721C34.8261 33.8831 35.3151 33.3452 35.6085 32.7095V28.064H41.6231V27.9662Z" fill="#002645"/>
<path d="M21.4342 49.755H41.6299V44.6205H21.4342V49.755Z" fill="#002645"/>
</svg>
