<svg width="49" height="48" viewBox="0 0 49 48" fill="none" xmlns="http://www.w3.org/2000/svg">
<path d="M24.5856 47.8963C11.4897 47.8963 0.85376 37.2603 0.85376 24.1644C0.85376 11.0685 11.4897 0.432542 24.5856 0.432542C37.6815 0.432542 48.3175 11.0685 48.3175 24.1644C48.3175 37.2603 37.6815 47.8963 24.5856 47.8963ZM24.5856 1.91577C12.3217 1.91577 2.30082 11.9005 2.30082 24.2006C2.30082 36.4645 12.2856 46.4854 24.5856 46.4854C36.8857 46.4854 46.8704 36.5006 46.8704 24.2006C46.8704 11.9005 36.8857 1.91577 24.5856 1.91577Z" fill="#566D82"/>
<path fill-rule="evenodd" clip-rule="evenodd" d="M26.5027 36.6815V24.1644H29.9395L30.4098 19.8594H26.5027V17.6888C26.5027 16.5673 26.6113 15.9523 28.2392 15.9523H30.4098V11.6473H26.973C22.8127 11.6473 21.3657 13.7456 21.3657 17.2547V19.8594H18.7971V24.1644H21.3657V36.6815H26.5027V36.6815Z" fill="#566D82"/>
</svg>
