<svg width="49" height="48" viewBox="0 0 49 48" fill="none" xmlns="http://www.w3.org/2000/svg">
<path d="M24.4451 47.8963C11.3492 47.8963 0.713257 37.2603 0.713257 24.1644C0.713257 11.0685 11.3492 0.432542 24.4451 0.432542C37.541 0.432542 48.177 11.0685 48.177 24.1644C48.177 37.2603 37.541 47.8963 24.4451 47.8963ZM24.4451 1.91577C12.1812 1.91577 2.16032 11.9005 2.16032 24.2006C2.16032 36.4645 12.1451 46.4854 24.4451 46.4854C36.7452 46.4854 46.7299 36.5006 46.7299 24.2006C46.7299 11.9005 36.7452 1.91577 24.4451 1.91577Z" fill="#0FE0D2"/>
<path fill-rule="evenodd" clip-rule="evenodd" d="M26.3621 36.6815V24.1644H29.7989L30.2692 19.8594H26.3621V17.6888C26.3621 16.5673 26.4706 15.9523 28.0986 15.9523H30.2692V11.6473H26.8324C22.6721 11.6473 21.225 13.7456 21.225 17.2547V19.8594H18.6565V24.1644H21.225V36.6815H26.3621V36.6815Z" fill="#0FE0D2"/>
</svg>
