<svg width="49" height="48" viewBox="0 0 49 48" fill="none" xmlns="http://www.w3.org/2000/svg">
<path d="M24.5856 47.4637C11.4897 47.4637 0.85376 36.8278 0.85376 23.7319C0.85376 10.6359 11.4897 0 24.5856 0C37.6815 0 48.3175 10.6359 48.3175 23.7319C48.3175 36.8278 37.6815 47.4637 24.5856 47.4637ZM24.5856 1.44706C12.3217 1.44706 2.30082 11.4318 2.30082 23.7319C2.30082 35.9957 12.2856 46.0167 24.5856 46.0167C36.8857 46.0167 46.8704 36.0319 46.8704 23.7319C46.8704 11.468 36.8857 1.44706 24.5856 1.44706Z" fill="#566D82"/>
<path d="M17.9655 18.7757H12.7561V34.4401H17.9655V18.7757Z" fill="#566D82"/>
<path fill-rule="evenodd" clip-rule="evenodd" d="M18.2912 13.928C18.255 12.4086 17.1697 11.2148 15.3609 11.2148C13.5883 11.2148 12.3944 12.3724 12.3944 13.928C12.3944 15.4474 13.5159 16.6413 15.2885 16.6413H15.3248C17.1698 16.6413 18.2912 15.4474 18.2912 13.928Z" fill="#566D82"/>
<path fill-rule="evenodd" clip-rule="evenodd" d="M36.7408 25.4684C36.7408 20.6569 34.1723 18.4139 30.7355 18.4139C27.9861 18.4139 26.7199 19.9333 26.0326 20.9825V18.7757H20.8231C20.8955 20.2589 20.8231 34.4402 20.8231 34.4402H26.0326V25.6854C26.0326 25.2151 26.0687 24.7448 26.2134 24.4192C26.5752 23.4787 27.4435 22.5019 28.8905 22.5019C30.7717 22.5019 31.5314 23.949 31.5314 26.0472V34.4402H36.7408V25.4684Z" fill="#566D82"/>
</svg>
