<svg width="49" height="48" viewBox="0 0 49 48" fill="none" xmlns="http://www.w3.org/2000/svg">
<path d="M24.4451 47.5134C11.3492 47.5134 0.713257 36.8775 0.713257 23.7815C0.713257 10.6856 11.3492 0.0496826 24.4451 0.0496826C37.541 0.0496826 48.177 10.6856 48.177 23.7815C48.177 36.8775 37.541 47.5134 24.4451 47.5134ZM24.4451 1.49675C12.1812 1.49675 2.16032 11.4815 2.16032 23.7815C2.16032 36.0454 12.1451 46.0663 24.4451 46.0663C36.7452 46.0663 46.7299 36.0816 46.7299 23.7815C46.7299 11.5177 36.7452 1.49675 24.4451 1.49675Z" fill="#0FE0D2"/>
<path d="M17.8252 18.8253H12.6157V34.4898H17.8252V18.8253Z" fill="#0FE0D2"/>
<path fill-rule="evenodd" clip-rule="evenodd" d="M18.1507 13.9777C18.1145 12.4583 17.0292 11.2645 15.2204 11.2645C13.4478 11.2645 12.2539 12.4221 12.2539 13.9777C12.2539 15.4971 13.3754 16.6909 15.148 16.6909H15.1842C17.0293 16.6909 18.1507 15.4971 18.1507 13.9777Z" fill="#0FE0D2"/>
<path fill-rule="evenodd" clip-rule="evenodd" d="M36.6003 25.518C36.6003 20.7066 34.0318 18.4636 30.595 18.4636C27.8456 18.4636 26.5794 19.983 25.8921 21.0321V18.8254H20.6826C20.755 20.3086 20.6826 34.4899 20.6826 34.4899H25.8921V25.7351C25.8921 25.2648 25.9282 24.7945 26.0729 24.4689C26.4347 23.5283 27.303 22.5516 28.75 22.5516C30.6312 22.5516 31.3909 23.9986 31.3909 26.0969V34.4899H36.6003V25.518Z" fill="#0FE0D2"/>
</svg>
