<svg width="49" height="49" viewBox="0 0 49 49" fill="none" xmlns="http://www.w3.org/2000/svg">
<path d="M24.4451 48.2048C11.3492 48.2048 0.713257 37.5689 0.713257 24.4729C0.713257 11.377 11.3492 0.741081 24.4451 0.741081C37.541 0.741081 48.177 11.377 48.177 24.4729C48.177 37.5689 37.541 48.2048 24.4451 48.2048ZM24.4451 2.22432C12.1812 2.22432 2.16032 12.2091 2.16032 24.5091C2.16032 36.773 12.1451 46.7939 24.4451 46.7939C36.7452 46.7939 46.7299 36.8092 46.7299 24.5091C46.7299 12.2091 36.7452 2.22432 24.4451 2.22432Z" fill="#0FE0D2"/>
<path fill-rule="evenodd" clip-rule="evenodd" d="M23.7579 20.168L23.7941 20.9639L22.9982 20.8553C20.0679 20.4935 17.4994 19.2274 15.3288 17.0929L14.2797 16.0438L13.9903 16.8397C13.4114 18.5762 13.7732 20.4212 15.0032 21.6512C15.6544 22.3386 15.5097 22.4471 14.3882 22.013C13.9902 21.8683 13.6647 21.7959 13.6285 21.8321C13.52 21.9406 13.9179 23.4238 14.2073 24.0027C14.6414 24.7986 15.4735 25.5945 16.4141 26.0647L17.21 26.4265H16.2694C15.365 26.4265 15.3288 26.4265 15.4373 26.7883C15.7629 27.8374 17.0291 28.9589 18.44 29.4654L19.4529 29.7909L18.5847 30.2974C17.2823 31.0571 15.7991 31.4551 14.2797 31.4912C13.5562 31.4912 12.9773 31.5636 12.9773 31.636C12.9773 31.7807 14.9309 32.7213 16.0885 33.083C19.5253 34.1321 23.5771 33.698 26.6521 31.8892C28.8227 30.623 30.9933 28.0545 32.0062 25.5945C32.5489 24.2921 33.0915 21.8683 33.0915 20.7106C33.0915 19.9509 33.1277 19.8786 34.0321 18.9741C34.5748 18.4677 35.045 17.8888 35.1536 17.708C35.2983 17.3824 35.2983 17.3824 34.4662 17.6718C33.0915 18.1421 32.9106 18.1059 33.598 17.3462C34.1044 16.8397 34.6833 15.8991 34.6833 15.6097C34.6833 15.5735 34.4301 15.6459 34.1768 15.7906C33.8874 15.9353 33.2362 16.1885 32.7659 16.3332L31.8977 16.6227L31.1018 16.08C30.6677 15.7906 30.0527 15.465 29.7271 15.3565C28.895 15.1394 27.665 15.1756 26.9053 15.4288C24.8794 16.2247 23.6132 18.1059 23.7579 20.168Z" fill="#0FE0D2"/>
</svg>
