<svg width="49" height="49" viewBox="0 0 49 49" fill="none" xmlns="http://www.w3.org/2000/svg">
<path d="M24.5856 48.2048C11.4897 48.2048 0.85376 37.5689 0.85376 24.4729C0.85376 11.377 11.4897 0.741081 24.5856 0.741081C37.6815 0.741081 48.3175 11.377 48.3175 24.4729C48.3175 37.5689 37.6815 48.2048 24.5856 48.2048ZM24.5856 2.22432C12.3217 2.22432 2.30082 12.2091 2.30082 24.5091C2.30082 36.773 12.2856 46.7939 24.5856 46.7939C36.8857 46.7939 46.8704 36.8092 46.8704 24.5091C46.8704 12.2091 36.8857 2.22432 24.5856 2.22432Z" fill="#566D82"/>
<path fill-rule="evenodd" clip-rule="evenodd" d="M23.8984 20.168L23.9346 20.9639L23.1387 20.8553C20.2084 20.4935 17.6399 19.2274 15.4693 17.0929L14.4202 16.0438L14.1308 16.8397C13.5519 18.5762 13.9137 20.4212 15.1437 21.6512C15.7949 22.3386 15.6502 22.4471 14.5287 22.013C14.1308 21.8683 13.8052 21.7959 13.769 21.8321C13.6605 21.9406 14.0584 23.4238 14.3478 24.0027C14.7819 24.7986 15.614 25.5945 16.5546 26.0647L17.3505 26.4265H16.4099C15.5055 26.4265 15.4693 26.4265 15.5778 26.7883C15.9034 27.8374 17.1696 28.9589 18.5805 29.4654L19.5934 29.7909L18.7252 30.2974C17.4228 31.0571 15.9396 31.4551 14.4202 31.4912C13.6967 31.4912 13.1178 31.5636 13.1178 31.636C13.1178 31.7807 15.0714 32.7213 16.229 33.083C19.6658 34.1321 23.7176 33.698 26.7926 31.8892C28.9632 30.623 31.1338 28.0545 32.1467 25.5945C32.6894 24.2921 33.232 21.8683 33.232 20.7106C33.232 19.9509 33.2682 19.8786 34.1726 18.9741C34.7153 18.4677 35.1856 17.8888 35.2941 17.708C35.4388 17.3824 35.4388 17.3824 34.6067 17.6718C33.232 18.1421 33.0511 18.1059 33.7385 17.3462C34.2449 16.8397 34.8238 15.8991 34.8238 15.6097C34.8238 15.5735 34.5706 15.6459 34.3173 15.7906C34.0279 15.9353 33.3767 16.1885 32.9064 16.3332L32.0382 16.6227L31.2423 16.08C30.8082 15.7906 30.1932 15.465 29.8676 15.3565C29.0355 15.1394 27.8055 15.1756 27.0458 15.4288C25.0199 16.2247 23.7537 18.1059 23.8984 20.168Z" fill="#566D82"/>
</svg>
